<svg xmlns="http://www.w3.org/2000/svg" version="1.1" xmlns:xlink="http://www.w3.org/1999/xlink" xmlns:svgjs="http://svgjs.dev/svgjs" width="1000" height="1000" viewBox="0 0 1000 1000"><rect width="1000" height="1000" fill="#1f0f53"></rect><g transform="matrix(0.7,0,0,0.7,150,106.25)"><svg viewBox="0 0 320 360" data-background-color="#1f0f53" preserveAspectRatio="xMidYMid meet" height="1125" width="1000" xmlns="http://www.w3.org/2000/svg" xmlns:xlink="http://www.w3.org/1999/xlink"><g id="tight-bounds" transform="matrix(1,0,0,1,0,0)"><svg viewBox="0 0 320 360" height="360" width="320"><g><svg></svg></g><g><svg viewBox="0 0 320 360" height="360" width="320"><g><path d="M320 187.111c0-45.764-20.238-86.866-52.203-114.908-28.043-31.964-69.145-52.203-114.908-52.203-84.302 0-152.889 68.587-152.889 152.889 0 45.753 20.231 86.848 52.185 114.891 28.043 31.975 69.152 52.22 114.926 52.22 0.299 0 0.59-0.021 0.889-0.021 0.299 0 0.59 0.021 0.889 0.021 83.456 0 151.111-67.655 151.111-151.111 0-0.299-0.021-0.59-0.021-0.889 0-0.299 0.021-0.59 0.021-0.889zM59.833 263.097c-15.093-21.255-24.071-47.143-24.256-75.097 0.48-72.928 59.492-131.943 132.423-132.423 27.954 0.185 53.845 9.163 75.097 24.256 24.366 23.627 39.57 56.64 39.57 93.056 0 71.559-58.219 129.778-129.778 129.778-36.416 0-69.429-15.204-93.056-39.57zM3.556 172.889c0-82.343 66.99-149.333 149.333-149.333 35.051 0 67.292 12.167 92.8 32.462-22.98-13.824-49.863-21.796-78.578-21.796-84.302 0-152.889 68.587-152.889 152.889 0 28.708 7.968 55.584 21.785 78.56-20.288-25.5-32.452-57.739-32.451-92.782zM167.111 318.667c-35.84 0-68.363-14.418-92.107-37.743 21.952 15.89 48.864 25.298 77.885 25.298 73.522 0 133.333-59.812 133.333-133.333 0-29.02-9.408-55.932-25.298-77.885 23.324 23.744 37.742 56.267 37.743 92.107 0 72.54-59.015 131.556-131.556 131.556z" fill="#ffdb99" fill-rule="nonzero" stroke="none" stroke-width="1" stroke-linecap="butt" stroke-linejoin="miter" stroke-miterlimit="10" stroke-dasharray="" stroke-dashoffset="0" font-family="none" font-weight="none" font-size="none" text-anchor="none" style="mix-blend-mode: normal" data-fill-palette-color="tertiary"></path></g><g transform="matrix(1,0,0,1,70.10177705977382,99)"><svg viewBox="0 0 179.79644588045235 162" height="162" width="179.79644588045235"><g><svg viewBox="0 0 179.79644588045235 162" height="162" width="179.79644588045235"><g><svg viewBox="0 0 179.79644588045235 162" height="162" width="179.79644588045235"><g><svg viewBox="0 0 179.79644588045235 162" height="162" width="179.79644588045235"><g><svg viewBox="0 0 179.79644588045235 162" height="162" width="179.79644588045235"><g><svg viewBox="0 0 179.79644588045235 162" height="162" width="179.79644588045235"><g transform="matrix(1,0,0,1,0,0)"><svg width="179.79644588045235" viewBox="1.6 -29.05 34.35 30.95" height="162" data-palette-color="#ffdb99"><path d="M8.7-0.85Q8.7-0.2 9.35-0.2 10-0.2 11.1-1.58 12.2-2.95 12.6-2.9L12.6-2.9Q12.9-2.6 11.95-1.6L11.95-1.6Q11.85-1.5 11.6-1.07 11.35-0.65 11.18-0.4 11-0.15 10.7 0.25 10.4 0.65 10.15 0.9 9.9 1.15 9.6 1.4L9.6 1.4Q9 1.9 8.55 1.9 8.1 1.9 7.33 1.73 6.55 1.55 6.53 1.35 6.5 1.15 6.5 1L6.5 1Q6.5-1.6 10.75-9.65L10.75-9.65Q10.1-9.65 9.73-9.7 9.35-9.75 9.28-10.1 9.2-10.45 9.47-10.5 9.75-10.55 10.05-10.5 10.35-10.45 11.1-10.45L11.1-10.45Q13.65-15.05 14.15-16.07 14.65-17.1 14.65-17.55 14.65-18 14.6-18.25L14.6-18.25Q14.8-19.65 17.03-21.93 19.25-24.2 21.05-24.2L21.05-24.2Q21.65-24.2 22.68-23.75 23.7-23.3 23.85-22.73 24-22.15 23.93-22.08 23.85-22 23.6-22.1 23.35-22.2 23.3-22.2L23.3-22.2Q19.7-22.2 13.05-10.45L13.05-10.45Q18.5-10.7 24.23-12.63 29.95-14.55 33-17.7L33-17.7Q34.75-19.4 34.75-21.3L34.75-21.3Q34.75-26.9 23.3-26.9L23.3-26.9Q16.75-26.9 10.8-24.9L10.8-24.9Q7.7-23.8 5.53-21.95 3.35-20.1 2.95-17.75L2.95-17.75Q2.9-17.5 2.9-17.1 2.9-16.7 3.23-16.13 3.55-15.55 4-15.25 4.45-14.95 5.28-14.55 6.1-14.15 6.38-13.95 6.65-13.75 6.5-13.53 6.35-13.3 5.85-13.4L5.85-13.4Q4.3-13.65 2.95-14.95 1.6-16.25 1.6-17.75L1.6-17.75Q1.6-18.2 1.7-18.65L1.7-18.65Q1.6-19.3 1.6-19.45L1.6-19.45Q2.3-23.2 8.95-26.6L8.95-26.6Q14.2-29.05 21.35-29.05L21.35-29.05Q25.75-29.05 30.05-27.85L30.05-27.85Q32.95-26.85 34.45-25 35.95-23.15 35.95-21.25L35.95-21.25Q35.95-18.35 33.65-16.13 31.35-13.9 28.5-12.7L28.5-12.7Q21.75-9.8 12.6-9.6L12.6-9.6Q10.65-6 9.68-3.75 8.7-1.5 8.7-0.85Z" opacity="1" transform="matrix(1,0,0,1,0,0)" fill="#ffdb99" class="undefined-text-0" data-fill-palette-color="primary" id="text-0"></path></svg></g></svg></g></svg></g></svg></g></svg></g></svg></g></svg></g></svg></g><defs></defs></svg><rect width="320" height="360" fill="none" stroke="none" visibility="hidden"></rect></g></svg></g></svg>